<svg width="678" height="807" viewBox="0 0 678 807" fill="none" xmlns="http://www.w3.org/2000/svg">
<path fill-rule="evenodd" clip-rule="evenodd" d="M256.66 6.00767L239.365 3.35151C245.156 4.00246 250.927 4.88824 256.66 6.00767Z" fill="white"/>
<path d="M432.302 193.62V273.902L676.249 311.367V233.966L432.302 193.62Z" fill="white"/>
<path d="M2 767.947H108.136V665.947H306.009V767.947H432.302V767.535V273.902H2L2 767.947Z" fill="white"/>
<path d="M2 193.62H432.302C412.528 85.4022 338.37 21.9622 256.66 6.00767L239.365 3.35151C179.815 -3.34225 118.045 14.7811 71.6437 58.7385C56.1766 73.391 42.4172 90.9139 31.0168 111.345C17.8795 134.889 7.87497 162.294 2 193.62Z" fill="white"/>
<path fill-rule="evenodd" clip-rule="evenodd" d="M432.302 273.902V767.535L493.288 776.901V684.679L554.275 694.046L615.262 703.412V795.634L676.249 805V311.367L432.302 273.902ZM493.288 313.557L554.275 322.923L615.262 332.29L645.756 336.973V368.623L615.262 363.939L554.275 354.573L493.288 345.207L478.042 342.865L462.795 340.524V308.874L466.446 309.435L478.042 311.216L493.288 313.557Z" fill="#DADADA"/>
<path d="M432.302 193.62H2L2 273.902H432.302V193.62Z" fill="#DADADA"/>
<path d="M432.302 193.62L676.249 233.966C653.319 108.477 580.398 51.5814 483.313 40.8166L256.66 6.00767C338.37 21.9622 412.528 85.4022 432.302 193.62Z" fill="#DADADA"/>
<path d="M554.275 322.923L493.288 313.557L478.042 311.216L466.446 309.435L462.795 308.874V340.524L478.042 342.865L493.288 345.207L554.275 354.573L615.262 363.939L645.756 368.623V336.973L615.262 332.29L554.275 322.923Z" fill="white"/>
<path d="M2 767.947H108.136V665.947H306.009V767.947H432.302M2 767.947L2 273.902M2 767.947C2 666.52 2 406.459 2 273.902M432.302 767.947V273.902M432.302 767.947V767.535M432.302 193.62H2M432.302 193.62V273.902M432.302 193.62L676.249 233.966M432.302 193.62C412.528 85.4022 338.37 21.9622 256.66 6.00767M2 193.62L2 273.902M2 193.62C2 193.62 2 225.131 2 273.902M2 193.62C7.87497 162.294 17.8795 134.889 31.0168 111.345C42.4172 90.9139 56.1766 73.391 71.6437 58.7385M432.302 273.902H2M432.302 273.902L676.249 311.367M432.302 273.902V767.535M676.249 233.966V311.367M676.249 233.966C653.319 108.477 580.398 51.5814 483.313 40.8166L256.66 6.00767M676.249 311.367V805L615.262 795.634V703.412L554.275 694.046L493.288 684.679V776.901L432.302 767.535M239.365 3.35151L256.66 6.00767M239.365 3.35151C245.156 4.00246 250.927 4.88824 256.66 6.00767M239.365 3.35151C179.815 -3.34225 118.045 14.7811 71.6437 58.7385M256.66 6.00767C191.975 -6.62276 122.558 10.5063 71.6437 58.7385M554.275 322.923L493.288 313.557L478.042 311.216L466.446 309.435L462.795 308.874V340.524L478.042 342.865L493.288 345.207L554.275 354.573L615.262 363.939L645.756 368.623V336.973L615.262 332.29L554.275 322.923Z" stroke="black" stroke-width="3"/>
</svg>
